<svg class="css-ze2te4 css-qd6ojx" viewBox="0 0 84.84848484848484 111.38064058504408"><g transform="translate(-14.670052650974382, -5.735362324529941) scale(1.9125492442478658)" class="css-1ee2f2g" fill="#3C5C9D"><title xmlns="http://www.w3.org/2000/svg">04, heart, human, organ, biology,</title><g xmlns="http://www.w3.org/2000/svg" data-name="Layer 3"><path d="M9,33h.11c.09,0,1.64-.19,3.12-.53-.5,3.92-.13,8,1,10.26a28.91,28.91,0,0,0,3.22,4.82l-1.15,8.32c-.11.85,1.1,2.87,3.19,3.33,1.21.27,3.6.5,3.94-.7l1.15-4a19.93,19.93,0,0,0,4.05,2.4c3.57,1.51,12.82,4.65,16.4,4.31s7.82-7,8-14.94c.16-8.06-4-15.47-4.15-15.78a1,1,0,0,0-.15-.2A7.87,7.87,0,0,0,46,29a13.09,13.09,0,0,0-.28-1.7c.89-.6,2.87-2,3.38-2.44.75-.68.64-2.11-.35-4.23a1,1,0,0,0-1.17-.55l-5.73,1.55a12,12,0,0,0-2.45-1.12,14.81,14.81,0,0,1,5.37-1.48,3.72,3.72,0,0,0,2.74-3,2.86,2.86,0,0,0-1.93-3.65c-.35-.1-4.64.46-5,.51a7.13,7.13,0,0,0-1.91-3.78l1.28-4.88A1,1,0,0,0,39,3H34.82a1,1,0,0,0-1,.69L33,6.22l-.3-.06-1-2.54A1,1,0,0,0,30.77,3H26.43a1,1,0,0,0-.94,1.34L26.63,7.5A11.22,11.22,0,0,0,24,10.92l0-.93c-.05-1.5-4-3.1-7.57-.36-.67.5-.31,1.23-.4,3.15-4.3,2.59-4.81,2.46-5,3.24a7.15,7.15,0,0,0,0,2.26,2.4,2.4,0,0,0,1.87,2.13c.45.09.65-.14,3.68-.92-.11,1.18-.29,2.55-.43,3.55l-4.86-.74a1,1,0,0,0-1,.54l-1,1.94a1,1,0,0,0,.15,1.11A14.84,14.84,0,0,0,11,27.5L8.26,28.74a1,1,0,0,0-.58,1.05L8,32.14A1,1,0,0,0,9,33Zm18.73-7.24C26.87,30.49,22.22,34,18,35.82a7.79,7.79,0,0,0-3.76,3.35c-.7-4.22.25-12.16,3.28-14.26a6.54,6.54,0,0,1,3.81-1.18A13.64,13.64,0,0,1,27.73,25.76Zm-7,31.62a5.48,5.48,0,0,1-1.75-.14,2.27,2.27,0,0,1-1.6-1.35l.87-6.31a38.05,38.05,0,0,0,3.69,3.6ZM50,46.25c-.16,7.74-4.36,12.82-6.16,13-2.35.22-10-1.85-15.43-4.16-5.19-2.21-11.1-8.91-13.25-13a6.43,6.43,0,0,1,3.6-4.46C21,36.72,28,33.31,29.55,26.84a26.1,26.1,0,0,0,8.93,3.7,1,1,0,0,0,.55-.06,6.64,6.64,0,0,1,7.16,1.13C46.71,32.57,50.16,39.26,50,46.25ZM38.54,28.52A18.69,18.69,0,0,1,36.73,28a13.54,13.54,0,0,1,1-5.87,9.31,9.31,0,0,1,4.19,2,7.22,7.22,0,0,1,1.92,3.95A8.48,8.48,0,0,0,38.54,28.52Zm9-5c-.47.37-1.56,1.13-2.52,1.8a8,8,0,0,0-1.32-2.14l3.49-.94A5.85,5.85,0,0,1,47.58,23.54Zm-2-8c-.28,1.17-.95,1.44-1.12,1.49-1,.09-6.77.73-8.45,4.08a14.49,14.49,0,0,0-1.26,6.14,43.46,43.46,0,0,1-6-3.29,1,1,0,0,0,.14-.31c.66-2.61,2.21-6.57,3.6-7.21,1.83-.84,9.62-1.78,12.75-2.1C45.41,14.49,45.74,14.79,45.55,15.58ZM35.54,5h2.13l-.73,2.77a11.08,11.08,0,0,0-2-1ZM28,9a1,1,0,0,0,.66-.42c.5-.7-.11-1.23-.84-3.57H30.1l1,2.43a1,1,0,0,0,.81.62c.06,0,5.83.77,6.67,5.13a34,34,0,0,0-7,1.48c-2.68,1.24-4.31,7.05-4.67,8.44-.42-.19-.86-.37-1.3-.54a1,1,0,0,0-.19-.45,8.29,8.29,0,0,1-.69-8.43C26.7,9.73,27.87,9.06,28,9ZM13.1,18.37a3.22,3.22,0,0,1-.2-1.54l4.54-2.6a1,1,0,0,0,.51-.87V11c1.22-.73,2.82-1.21,4-.46l.17,4.73A10.14,10.14,0,0,0,23,21.85a9.06,9.06,0,0,0-4.76.44,30.58,30.58,0,0,0,.37-5.05,1,1,0,0,0-2,.15Zm-1.78,6.68.33-.66,3.15.48a9.09,9.09,0,0,0-.77,1.3l-.86.38A9.19,9.19,0,0,1,11.32,25.05ZM13,28.82c-.14.48-.26,1-.37,1.47a22.25,22.25,0,0,1-2.76.59l-.09-.62Z"/></g></g></svg>