<svg viewBox="0 0 370.1515151515152 111.38064058504408" preserveAspectRatio="xMidYMid meet" class="css-ata32y" id="bcfaeffe"><defs id="SvgjsDefs5059"/><g id="SvgjsG5060" featurekey="symbolFeature-0" transform="matrix(1.9125492442478658,0,0,1.9125492442478658,-14.670052650974382,-5.735362324529941)"><title xmlns="http://www.w3.org/2000/svg">04, heart, human, organ, biology,</title><g xmlns="http://www.w3.org/2000/svg" data-name="Layer 3"><path d="M9,33h.11c.09,0,1.64-.19,3.12-.53-.5,3.92-.13,8,1,10.26a28.91,28.91,0,0,0,3.22,4.82l-1.15,8.32c-.11.85,1.1,2.87,3.19,3.33,1.21.27,3.6.5,3.94-.7l1.15-4a19.93,19.93,0,0,0,4.05,2.4c3.57,1.51,12.82,4.65,16.4,4.31s7.82-7,8-14.94c.16-8.06-4-15.47-4.15-15.78a1,1,0,0,0-.15-.2A7.87,7.87,0,0,0,46,29a13.09,13.09,0,0,0-.28-1.7c.89-.6,2.87-2,3.38-2.44.75-.68.64-2.11-.35-4.23a1,1,0,0,0-1.17-.55l-5.73,1.55a12,12,0,0,0-2.45-1.12,14.81,14.81,0,0,1,5.37-1.48,3.72,3.72,0,0,0,2.74-3,2.86,2.86,0,0,0-1.93-3.65c-.35-.1-4.64.46-5,.51a7.13,7.13,0,0,0-1.91-3.78l1.28-4.88A1,1,0,0,0,39,3H34.82a1,1,0,0,0-1,.69L33,6.22l-.3-.06-1-2.54A1,1,0,0,0,30.77,3H26.43a1,1,0,0,0-.94,1.34L26.63,7.5A11.22,11.22,0,0,0,24,10.92l0-.93c-.05-1.5-4-3.1-7.57-.36-.67.5-.31,1.23-.4,3.15-4.3,2.59-4.81,2.46-5,3.24a7.15,7.15,0,0,0,0,2.26,2.4,2.4,0,0,0,1.87,2.13c.45.09.65-.14,3.68-.92-.11,1.18-.29,2.55-.43,3.55l-4.86-.74a1,1,0,0,0-1,.54l-1,1.94a1,1,0,0,0,.15,1.11A14.84,14.84,0,0,0,11,27.5L8.26,28.74a1,1,0,0,0-.58,1.05L8,32.14A1,1,0,0,0,9,33Zm18.73-7.24C26.87,30.49,22.22,34,18,35.82a7.79,7.79,0,0,0-3.76,3.35c-.7-4.22.25-12.16,3.28-14.26a6.54,6.54,0,0,1,3.81-1.18A13.64,13.64,0,0,1,27.73,25.76Zm-7,31.62a5.48,5.48,0,0,1-1.75-.14,2.27,2.27,0,0,1-1.6-1.35l.87-6.31a38.05,38.05,0,0,0,3.69,3.6ZM50,46.25c-.16,7.74-4.36,12.82-6.16,13-2.35.22-10-1.85-15.43-4.16-5.19-2.21-11.1-8.91-13.25-13a6.43,6.43,0,0,1,3.6-4.46C21,36.72,28,33.31,29.55,26.84a26.1,26.1,0,0,0,8.93,3.7,1,1,0,0,0,.55-.06,6.64,6.64,0,0,1,7.16,1.13C46.71,32.57,50.16,39.26,50,46.25ZM38.54,28.52A18.69,18.69,0,0,1,36.73,28a13.54,13.54,0,0,1,1-5.87,9.31,9.31,0,0,1,4.19,2,7.22,7.22,0,0,1,1.92,3.95A8.48,8.48,0,0,0,38.54,28.52Zm9-5c-.47.37-1.56,1.13-2.52,1.8a8,8,0,0,0-1.32-2.14l3.49-.94A5.85,5.85,0,0,1,47.58,23.54Zm-2-8c-.28,1.17-.95,1.44-1.12,1.49-1,.09-6.77.73-8.45,4.08a14.49,14.49,0,0,0-1.26,6.14,43.46,43.46,0,0,1-6-3.29,1,1,0,0,0,.14-.31c.66-2.61,2.21-6.57,3.6-7.21,1.83-.84,9.62-1.78,12.75-2.1C45.41,14.49,45.74,14.79,45.55,15.58ZM35.54,5h2.13l-.73,2.77a11.08,11.08,0,0,0-2-1ZM28,9a1,1,0,0,0,.66-.42c.5-.7-.11-1.23-.84-3.57H30.1l1,2.43a1,1,0,0,0,.81.62c.06,0,5.83.77,6.67,5.13a34,34,0,0,0-7,1.48c-2.68,1.24-4.31,7.05-4.67,8.44-.42-.19-.86-.37-1.3-.54a1,1,0,0,0-.19-.45,8.29,8.29,0,0,1-.69-8.43C26.7,9.73,27.87,9.06,28,9ZM13.1,18.37a3.22,3.22,0,0,1-.2-1.54l4.54-2.6a1,1,0,0,0,.51-.87V11c1.22-.73,2.82-1.21,4-.46l.17,4.73A10.14,10.14,0,0,0,23,21.85a9.06,9.06,0,0,0-4.76.44,30.58,30.58,0,0,0,.37-5.05,1,1,0,0,0-2,.15Zm-1.78,6.68.33-.66,3.15.48a9.09,9.09,0,0,0-.77,1.3l-.86.38A9.19,9.19,0,0,1,11.32,25.05ZM13,28.82c-.14.48-.26,1-.37,1.47a22.25,22.25,0,0,1-2.76.59l-.09-.62Z"/></g></g><g id="SvgjsG5061" featurekey="nameFeature-0" transform="matrix(2.0141935807154625,0,0,2.0141935807154625,103.81928020551084,-14.721158660642342)"><path d="M21.602 11.777000000000001 l6.2305 0 l-10.43 28.223 l-6.4453 0 l-10.371 -28.223 l6.2109 0 l7.4023 21.387 z M33.0321828125 40 l0 -28.223 l5.8594 0 l0 28.223 l-5.8594 0 z M47.138628125 40 l0 -28.223 l10.215 0 c9.0039 0 13.457 5.6641 13.457 14.102 c0 8.457 -4.4531 14.121 -13.457 14.121 l-10.215 0 z M52.998028125 34.8242 l4.0625 0 c5.1953 0 7.5781 -3.2422 7.5781 -8.9453 s-2.3828 -8.9453 -7.5781 -8.9453 l-4.0625 0 l0 17.891 z M96.1473984375 40 l-2.0508 -5.8203 l-11.855 0 l-2.0508 5.8203 l-5.9961 0 l10.391 -28.223 l7.168 0 l10.391 28.223 l-5.9961 0 z M83.9603984375 29.277 l8.418 0 l-4.1992 -11.973 z M126.23040625 40 l-2.0508 -5.8203 l-11.855 0 l-2.0508 5.8203 l-5.9961 0 l10.391 -28.223 l7.168 0 l10.391 28.223 l-5.9961 0 z M114.04340625 29.277 l8.418 0 l-4.1992 -11.973 z"/></g><g id="SvgjsG5062" featurekey="sloganFeature-0" transform="matrix(1.8022499003058141,0,0,1.8022499003058141,140.7089108272981,65.73923043135288)"><path d="M7.6953 5.888999999999999 c2.7637 0 4.4824 2.0508 4.4824 4.5605 c0 2.5684 -1.7188 4.4922 -4.4824 4.4922 l-2.9395 0 l0 5.0586 l-2.9297 0 l0 -14.111 l5.8691 0 z M7.207 12.4902 c1.4648 0 2.1484 -0.81055 2.1484 -2.0801 c0 -1.2207 -0.68359 -2.0703 -2.1484 -2.0703 l-2.4512 0 l0 4.1504 l2.4512 0 z M17.5684 17.4121 l4.4238 0 l0 2.5879 l-7.3535 0 l0 -14.111 l2.9297 0 l0 11.523 z M33.672343749999996 20 l-1.0254 -2.9102 l-5.9277 0 l-1.0254 2.9102 l-2.998 0 l5.1953 -14.111 l3.584 0 l5.1953 14.111 l-2.998 0 z M27.57814375 14.6387 l4.209 0 l-2.0996 -5.9863 z M46.972890625 5.888999999999999 l0 2.5781 l-3.3496 0 l0 11.533 l-2.9004 0 l0 -11.533 l-3.3691 0 l0 -2.5781 l9.6191 0 z M57.50928125 8.467 l-5.3711 0 l0 3.2031 l4.6387 0 l0 2.5488 l-4.6387 0 l0 5.7813 l-2.9492 0 l0 -14.111 l8.3203 0 l0 2.5781 z M66.25979375 20.19531 c-4.1504 0 -7.2168 -2.832 -7.2168 -7.2559 c0 -4.4336 3.0664 -7.2461 7.2168 -7.2461 c4.1406 0 7.207 2.8125 7.207 7.2461 c0 4.4238 -3.0664 7.2559 -7.207 7.2559 z M66.25979375 17.5098 c2.4316 0 4.2969 -1.709 4.2969 -4.5703 c0 -2.8516 -1.8652 -4.5508 -4.2969 -4.5508 s-4.2969 1.6992 -4.2969 4.5508 c0 2.8613 1.8652 4.5703 4.2969 4.5703 z M83.6132375 20 l-3.6719 -6.2109 l-0.84961 0 l0 6.2109 l-2.9297 0 l0 -14.111 l5.1172 0 c3.1934 0 4.541 1.8848 4.541 4.2188 c0 1.8945 -1.0742 3.125 -2.9883 3.5352 l4.248 6.3574 l-3.4668 0 z M79.0918375 8.32 l0 3.3691 l1.7285 0 c1.5625 0 2.1973 -0.66406 2.1973 -1.6797 c0 -1.0059 -0.63477 -1.6895 -2.1973 -1.6895 l-1.7285 0 z M105.40034375 20 l-2.9199 0 l-0.92773 -10.635 l-3.5742 10.635 l-1.8945 0 l-3.5742 -10.635 l-0.9375 10.635 l-2.9297 0 l1.1816 -14.111 l4.1797 0 l3.0078 8.8574 l3.0469 -8.8574 l4.1797 0 z"/></g></svg>